<mxfile host="app.diagrams.net" modified="2023-07-18T04:03:04.745Z" agent="Mozilla/5.0 (Windows NT 6.1; Win64; x64) AppleWebKit/537.36 (KHTML, like Gecko) Chrome/76.0.3809.100 Safari/537.36" version="21.3.2" etag="LsycEegQSKBNCcdZHPbo" type="github">
  <diagram name="Halaman-1" id="YzdtA917QsJDScCwb7J0">
    <mxGraphModel>
      <root>
        <mxCell id="0" />
        <mxCell id="1" parent="0" />
      </root>
    </mxGraphModel>
  </diagram>
</mxfile>
